<?xml version="1.0" encoding="utf-8"?>
<!-- Generator: Adobe Illustrator 28.2.0, SVG Export Plug-In . SVG Version: 6.00 Build 0)  -->
<svg version="1.0" id="katman_1" xmlns="http://www.w3.org/2000/svg" xmlns:xlink="http://www.w3.org/1999/xlink" x="0px" y="0px"
	 viewBox="0 0 64 64" style="enable-background:new 0 0 64 64;" xml:space="preserve">
<path fill="#FFFFFF" d="M41.6,41.6c5.3-5.3,5.3-13.9,0-19.2s-13.9-5.3-19.2,0s-5.3,13.9,0,19.2c0,0,0,0,0,0C27.7,46.9,36.3,46.9,41.6,41.6z"/>
<path fill="#FFFFFF" d="M33.8,13.5c10.2,1,17.7,10,16.7,20.3c-0.9,9.4-8.6,16.6-18,16.8c-0.8,0-1.4,0.7-1.4,1.4c0,0.8,0.7,1.4,1.4,1.4l0,0
	C44.4,53,53.6,43,53.2,31.2C52.8,20.5,44.6,11.7,34,10.6h-0.3c-0.8,0-1.4,0.6-1.4,1.4c0,0.8,0.5,1.4,1.3,1.4L33.8,13.5z"/>
<path fill="#FFFFFF" d="M32,58.7c14.8,0.1,26.8-11.8,26.9-26.6C59,18,48,6.2,33.8,5.3c-0.8,0-1.5,0.6-1.5,1.4s0.6,1.5,1.4,1.5
	c13.1,0.9,23,12.4,22.1,25.5s-12.4,23-25.5,22.1c-5.7-0.4-11.1-2.9-15.2-6.9c-0.6-0.5-1.4-0.5-2,0c-0.5,0.6-0.5,1.4,0,2
	C18.1,55.9,24.9,58.7,32,58.7z"/>
<path fill="#FFFFFF" d="M54.6,9.3c-5.6-5.6-13-8.9-20.9-9.3c-0.8,0-1.4,0.6-1.4,1.4c0,0.8,0.6,1.5,1.3,1.5C49.8,3.8,62,17.6,61.1,33.7
	S46.4,62,30.3,61.1c-15-0.9-26.8-12.9-27.4-27.9c0-0.8-0.7-1.4-1.5-1.4l0,0c-0.4,0-0.7,0.2-1,0.5c-0.2,0.3-0.4,0.6-0.4,1
	C0.8,51,15.7,64.6,33.4,63.9C51,63.1,64.7,48.1,63.9,30.5C63.6,22.5,60.3,15,54.6,9.3L54.6,9.3z"/>
</svg>
